<svg xmlns="http://www.w3.org/2000/svg" width="256" height="256" viewBox="0 0 256 256" role="img" aria-labelledby="t0 d0">
<title id="t0">Miles Morales fires web — realistic athletic crouch</title>
<desc id="d0">Athletic Miles in black-red suit crouched low, right arm extended firing web upper-right.</desc>
<defs>
<linearGradient id="suit" x1="0.15" y1="0" x2="0.85" y2="1" color-interpolation="linearRGB">
<stop offset="0" stop-color="#6f93e0"/><stop offset="0.18" stop-color="#273a61"/><stop offset="0.45" stop-color="#131a30"/><stop offset="0.72" stop-color="#0b1120"/><stop offset="0.88" stop-color="#253657"/><stop offset="1" stop-color="#4c6cab"/>
</linearGradient>
<linearGradient id="suitD" x1="0" y1="0" x2="1" y2="0" color-interpolation="linearRGB">
<stop offset="0" stop-color="#0a0f1e"/><stop offset="0.5" stop-color="#1a2440"/><stop offset="1" stop-color="#0a0f1e"/>
</linearGradient>
<linearGradient id="red" x1="0" y1="0" x2="0.8" y2="1" color-interpolation="linearRGB">
<stop offset="0" stop-color="#ffc6cd"/><stop offset="0.2" stop-color="#ff2236"/><stop offset="0.45" stop-color="#e62429"/><stop offset="0.75" stop-color="#a50e2c"/><stop offset="1" stop-color="#6d0a20"/>
</linearGradient>
<linearGradient id="redD" x1="0" y1="0" x2="0" y2="1" color-interpolation="linearRGB">
<stop offset="0" stop-color="#ff8595"/><stop offset="1" stop-color="#8d0f28"/>
</linearGradient>
<radialGradient id="lens" cx="38%" cy="28%" r="75%" fx="30%" fy="20%" color-interpolation="linearRGB">
<stop offset="0" stop-color="#ffffff"/><stop offset="0.35" stop-color="#f2f8ff"/><stop offset="0.62" stop-color="#b9d4ff"/><stop offset="0.85" stop-color="#6f8fd0"/><stop offset="1" stop-color="#42568c"/>
</radialGradient>
<linearGradient id="web" x1="0" y1="1" x2="1" y2="0" color-interpolation="linearRGB">
<stop offset="0" stop-color="#83bfff" stop-opacity="0.25"/><stop offset="0.42" stop-color="#e8f5ff"/><stop offset="0.7" stop-color="#ffffff"/><stop offset="1" stop-color="#9fc7ff" stop-opacity="0.45"/>
</linearGradient>
<linearGradient id="sole" x1="0" y1="0" x2="0" y2="1" color-interpolation="linearRGB">
<stop offset="0" stop-color="#343b4d"/><stop offset="1" stop-color="#0c0e13"/>
</linearGradient>
</defs>
<g id="effects-behind" fill="none" stroke-linecap="round">
<path d="M202 66 L252 0" stroke="url(#web)" stroke-width="5"/>
<path d="M208 67 L256 8" stroke="#ffffff" stroke-width="1.2" opacity="0.85"/>
<path d="M213 50 L224 38 M224 42 L224 25 M231 47 L244 38" stroke="#7fb5ff" stroke-width="3" opacity="0.9"/>
</g>
<g id="anticipate" transform="translate(0,23) scale(1.04,0.9)"><g id="shadow"><ellipse cx="132" cy="232" rx="68" ry="8" fill="#141b33" opacity="0.5"/><ellipse cx="132" cy="229" rx="47" ry="4" fill="#6d88ba" opacity="0.22"/></g>
<g id="legs" stroke-linecap="round" stroke-linejoin="round">
<g id="leg-back" fill="none"><path d="M126 168 L100 190 L74 212" stroke="#3d5689" stroke-width="24"/><path d="M126 168 L100 190 L74 212" stroke="url(#suit)" stroke-width="18"/><path d="M100 190 L74 212" stroke="url(#suitD)" stroke-width="18" opacity="0.35"/></g>
<g id="leg-front" fill="none"><path d="M152 168 L180 192 L203 210" stroke="#3d5689" stroke-width="24"/><path d="M152 168 L180 192 L203 210" stroke="url(#suit)" stroke-width="18"/></g>
<circle cx="100" cy="190" r="10" fill="#232f52"/><circle cx="180" cy="192" r="10" fill="#232f52"/>
<path d="M100 190 L74 212" fill="none" stroke="#9bc8ff" stroke-width="1.6" opacity="0.5"/>
<path d="M152 168 L180 192" fill="none" stroke="#bcd6ff" stroke-width="1.6" opacity="0.4"/>
</g>
<g id="boots">
<g id="boot-L"><path d="M56 210 Q70 201 88 207 L96 218 Q88 230 64 229 Q54 225 56 210Z" fill="url(#red)" stroke="#5c0d1d" stroke-width="1.6"/><path d="M60 210 L86 208" stroke="#1a1c24" stroke-width="3.5" stroke-linecap="round" opacity="0.9"/><path d="M59 220 L93 220" stroke="#dfe6f2" stroke-width="1.3" stroke-linecap="round" opacity="0.85"/><path d="M58 222 L94 222 L92 229 L62 229Z" fill="url(#sole)"/><path d="M64 213 L86 213" stroke="#ffdfe4" stroke-width="1.6" stroke-linecap="round" opacity="0.75"/><path d="M60 217 L66 217 M72 217 L78 217 M84 217 L90 217" stroke="#7d0f1e" stroke-width="1.2"/></g>
<g id="boot-R"><path d="M190 208 Q204 199 218 205 L224 217 Q214 228 192 223 Q187 216 190 208Z" fill="url(#red)" stroke="#5c0d1d" stroke-width="1.6"/><path d="M193 208 L215 205" stroke="#1a1c24" stroke-width="3.5" stroke-linecap="round" opacity="0.9"/><path d="M191 217 L221 217" stroke="#dfe6f2" stroke-width="1.3" stroke-linecap="round" opacity="0.85"/><path d="M190 219 L222 219 L220 226 L190 226Z" fill="url(#sole)"/><path d="M197 212 L215 212" stroke="#ffdfe4" stroke-width="1.6" stroke-linecap="round" opacity="0.75"/></g>
</g>
<g id="torso">
<path d="M110 120 Q136 109 162 121 L172 168 Q156 185 130 182 L103 157Z" fill="url(#suit)" stroke="#4e6ba3" stroke-width="2.5" stroke-linejoin="round"/>
<path d="M116 126 Q130 118 142 123 L136 176 Q122 168 112 156Z" fill="#8fb6f5" opacity="0.14"/>
<path d="M155 125 Q167 142 169 164 Q161 177 150 180 L144 124Z" fill="#070c18" opacity="0.55"/>
<path d="M110 120 Q136 109 162 121" fill="none" stroke="#a9cfff" stroke-width="1.8" opacity="0.6" stroke-linecap="round"/>
<path d="M118 145 Q136 138 158 146 M115 158 Q134 151 160 158" fill="none" stroke="#d21f2c" stroke-width="1.3" opacity="0.85"/>
<path d="M132 122 L130 180 M144 122 L146 180" fill="none" stroke="#d21f2c" stroke-width="1.1" opacity="0.7"/>
<path d="M118 145 Q136 138 158 146" fill="none" stroke="#ff8d9c" stroke-width="0.7" opacity="0.5"/>
<g id="spider" fill="none" stroke="url(#redD)" stroke-width="3.6" stroke-linecap="round" stroke-linejoin="round">
<path d="M139 136 L139 163"/><path d="M139 142 L126 135 M139 148 L122 148 M139 154 L125 162"/><path d="M139 142 L152 135 M139 148 L157 148 M139 154 L153 162"/>
</g>
<ellipse cx="139" cy="146" rx="4.5" ry="7.5" fill="url(#red)" stroke="#5c0d1d" stroke-width="1"/>
<path d="M139 138 L139 154" stroke="#ffd3d8" stroke-width="1" opacity="0.7" stroke-linecap="round"/>
</g>
<g id="arm-ground" stroke-linecap="round" stroke-linejoin="round">
<path d="M112 134 L86 156 L54 162" stroke="#3d5689" stroke-width="21"/><path d="M112 134 L86 156 L54 162" stroke="url(#suit)" stroke-width="15"/>
<circle cx="86" cy="156" r="8.5" fill="#263a61"/>
<path d="M112 134 L86 156" stroke="#a9cfff" stroke-width="1.4" opacity="0.45" fill="none"/>
<g id="glove-L"><path d="M43 156 Q52 148 63 154 L67 165 Q58 175 44 171 Q39 164 43 156Z" fill="url(#red)" stroke="#5c0d1d" stroke-width="1.6"/><path d="M50 152 Q48 160 50 168 M56 151 Q54 160 56 169 M62 153 Q60 161 62 167" fill="none" stroke="#4a0a14" stroke-width="1.2" stroke-linecap="round"/><path d="M44 163 Q51 160 57 163" fill="none" stroke="#4a0a14" stroke-width="1.1" stroke-linecap="round"/><path d="M47 155 L59 153" stroke="#ffe1e5" stroke-width="1.2" opacity="0.7" stroke-linecap="round"/></g>
</g>
<g id="arm-shoot" stroke-linecap="round" stroke-linejoin="round">
<path d="M158 131 L182 103 L203 68" stroke="#485f99" stroke-width="21"/><path d="M158 131 L182 103 L203 68" stroke="url(#suit)" stroke-width="15"/>
<circle cx="182" cy="103" r="8.5" fill="#283c65"/>
<path d="M158 131 L182 103" stroke="#c4daff" stroke-width="1.4" opacity="0.5" fill="none"/>
<g id="glove-R">
<path d="M207 58 L220 37" fill="none" stroke="#5c0d1d" stroke-width="10" stroke-linecap="round"/>
<path d="M211 66 L226 60" fill="none" stroke="#5c0d1d" stroke-width="9" stroke-linecap="round"/>
<path d="M198 62 L187 54" fill="none" stroke="#5c0d1d" stroke-width="9" stroke-linecap="round"/>
<path d="M196 60 Q206 52 214 59 L212 73 Q203 80 195 73Z" fill="url(#red)" stroke="#5c0d1d" stroke-width="1.6"/>
<path d="M207 58 L220 37" fill="none" stroke="url(#red)" stroke-width="6.5" stroke-linecap="round"/>
<path d="M211 66 L226 60" fill="none" stroke="url(#red)" stroke-width="5.5" stroke-linecap="round"/>
<path d="M198 62 L187 54" fill="none" stroke="url(#red)" stroke-width="5.5" stroke-linecap="round"/>
<path d="M201 64 Q205 68 203 73 M206 62 Q210 66 208 71" fill="none" stroke="#4a0a14" stroke-width="1.2" stroke-linecap="round"/>
<path d="M211 52 L218 40 M214 64 L223 61" stroke="#ffdfe4" stroke-width="1.3" stroke-linecap="round" opacity="0.8"/>
<rect x="198" y="69" width="12" height="6" rx="2" fill="#1a1c24" stroke="#9bc8ff" stroke-width="1"/>
</g>
</g>
<g id="head">
<ellipse cx="140" cy="90" rx="26" ry="30" fill="#415c94"/>
<ellipse cx="140" cy="90" rx="23" ry="27" fill="url(#suit)" stroke="#0e1526" stroke-width="1.8"/>
<path d="M119 76 Q140 62 161 74" fill="none" stroke="#9bc8ff" stroke-width="2" opacity="0.65" stroke-linecap="round"/>
<path d="M140 63 L140 117 M117 90 L163 90" fill="none" stroke="#cf2233" stroke-width="1.6" opacity="0.85" stroke-linecap="round"/>
<path d="M128 66 L124 114 M152 66 L156 114" fill="none" stroke="#cf2233" stroke-width="1" opacity="0.6"/>
<path d="M127 79 L137 72 L137 102 L122 97Z" fill="url(#lens)" stroke="#f5233d" stroke-width="2.6" stroke-linejoin="round"/>
<path d="M143 72 L153 79 L157 97 L143 102Z" fill="url(#lens)" stroke="#f5233d" stroke-width="2.6" stroke-linejoin="round"/>
<path d="M129 79 L133 76 L133 96 L126 93Z" fill="#ffffff" opacity="0.55"/>
<circle cx="131" cy="80" r="1.8" fill="#ffffff" opacity="0.95"/>
<circle cx="149" cy="80" r="1.5" fill="#ffffff" opacity="0.9"/>
<path d="M122 97 L137 102 M143 102 L157 97" fill="none" stroke="#7d0f1e" stroke-width="1" opacity="0.7"/>
</g>
</g></svg>
