<svg xmlns="http://www.w3.org/2000/svg" width="256" height="256" viewBox="0 0 256 256">
  <!-- KEY 1: SWING-BIG — stretched layout on a rope line -->
  <defs>
    <linearGradient id="eg" x1="0" y1="0" x2="0" y2="1">
      <stop offset="0%" stop-color="#ffffff"/>
      <stop offset="100%" stop-color="#cfdefc"/>
    </linearGradient>
    <clipPath id="tClip"><path d="M168,108 C150,112 124,120 100,132 L96,150 C122,146 150,140 172,134 Z"/></clipPath>
    <clipPath id="hClip"><circle cx="210" cy="122" r="26"/></clipPath>
  </defs>
  <path d="M194,54 L236,-12" stroke="#e8f1ff" stroke-width="6" stroke-linecap="round"/>
  <path d="M202,50 L242,-14" stroke="#e8f1ff" stroke-width="2.5" stroke-linecap="round" opacity="0.85"/>
  <path d="M150,128 L118,138 L92,150 L96,158 L124,148 L152,138 Z" fill="#16181f"/>
  <path d="M120,140 L132,146" stroke="#262b38" stroke-width="2"/>
  <path d="M100,132 L64,140 L30,132 L28,140 L64,148 L100,140 Z" fill="#16181f"/>
  <path d="M100,144 L68,154 L36,150 L34,158 L68,162 L100,152 Z" fill="#16181f"/>
  <path d="M64,141 L46,139 M68,155 L50,153" stroke="#262b38" stroke-width="2"/>
  <path d="M16,130 L42,130 L44,142 L18,142 Z" fill="#101216"/>
  <path d="M24,154 L50,158 L50,162 L24,158 Z" fill="#101216"/>
  <path d="M18,139 L44,139 L44,142 L18,142 Z M24,159 L50,162 L50,164 L24,161 Z" fill="#ff1e2d"/>
  <path d="M168,108 C150,112 124,120 100,132 L96,150 C122,146 150,140 172,134 Z" fill="#16181f"/>
  <path d="M168,108 C150,112 124,120 100,132 L102,140 C126,130 150,122 168,118 Z" fill="#232838" opacity="0.7"/>
  <g clip-path="url(#tClip)" stroke="#d21f2c" stroke-width="1.8" fill="none" opacity="0.95">
    <path d="M150,108 L138,128 L128,150 M162,106 L154,128 L146,148 M120,118 L112,136 L106,152"/>
    <path d="M104,126 Q138,134 170,122 M100,142 Q136,150 172,140"/>
  </g>
  <g stroke="#ff1e2d" stroke-width="2.5" stroke-linecap="round">
    <ellipse cx="150" cy="126" rx="6" ry="9" fill="#ff1e2d" stroke="none"/>
    <path d="M144,120 L136,112 M143,127 L133,126 M144,134 L136,140 M156,120 L164,112 M157,127 L167,126 M156,134 L164,140" fill="none"/>
  </g>
  <path d="M162,134 L110,150 L92,158 L96,164 L114,156 L164,142 Z" fill="#e01b28"/>
  <path d="M142,138 L118,146 L100,150" stroke="#16181f" stroke-width="13" stroke-linecap="round" fill="none"/>
  <circle cx="94" cy="152" r="8" fill="#d81f2a"/>
  <path d="M170,112 L186,110 L200,82 L188,76 Z" fill="#16181f"/>
  <path d="M174,104 L186,84" stroke="#262b38" stroke-width="2"/>
  <path d="M200,82 L188,76 L196,50 L208,54 Z" fill="#16181f"/>
  <rect x="186" y="42" width="22" height="18" rx="8" fill="#d81f2a" transform="rotate(68 197 51)"/>
  <path d="M190,48 L204,44 M190,54 L204,50" stroke="#7d0f16" stroke-width="1.6"/>
  <path d="M150,108 C160,104 172,104 182,108" stroke="#4d7cff" stroke-width="3" fill="none" opacity="0.8" stroke-linecap="round"/>
  <path d="M196,100 C209,97 220,102 226,112 C231,122 228,136 218,143 C208,150 196,148 190,139 C184,130 187,108 196,100 Z" fill="#16181f"/>
  <g clip-path="url(#hClip)" stroke="#d21f2c" stroke-width="1.5" fill="none" opacity="0.9">
    <path d="M210,96 L210,112 M198,98 L203,112 M222,98 L217,112"/>
  </g>
  <g transform="translate(6,2)">
    <path d="M184,108 L202,102 L200,126 L182,120 Z" fill="url(#eg)" stroke="#d81f2a" stroke-width="2.5" stroke-linejoin="round"/>
    <path d="M232,108 L214,102 L216,126 L234,120 Z" fill="url(#eg)" stroke="#d81f2a" stroke-width="2.5" stroke-linejoin="round"/>
  </g>
  <g stroke="#79adff" stroke-width="3" stroke-linecap="round" fill="none" opacity="0.6">
    <path d="M22,100 Q44,140 26,180"/>
    <path d="M6,94 Q34,140 12,188"/>
  </g>
</svg>
