<svg xmlns="http://www.w3.org/2000/svg" width="256" height="256" viewBox="0 0 256 256">
  <!-- KEY 3: LAND-SQUASH — wide impact, graffiti emblem -->
  <defs>
    <linearGradient id="eg" x1="0" y1="0" x2="0" y2="1">
      <stop offset="0%" stop-color="#ffffff"/>
      <stop offset="100%" stop-color="#cfdefc"/>
    </linearGradient>
    <clipPath id="torsoClip"><ellipse cx="146" cy="172" rx="38" ry="28"/></clipPath>
    <clipPath id="headClip"><circle cx="150" cy="122" r="30"/></clipPath>
  </defs>
  <path d="M128,152 L88,166 L62,152" stroke="#14161d" stroke-width="16" stroke-linecap="round" stroke-linejoin="round" fill="none"/>
  <circle cx="62" cy="152" r="8" fill="#e01b28"/>
  <path d="M164,152 L204,166 L230,152" stroke="#14161d" stroke-width="16" stroke-linecap="round" stroke-linejoin="round" fill="none"/>
  <circle cx="230" cy="152" r="8" fill="#e01b28"/>
  <path d="M128,196 L92,212 L80,230" stroke="#14161d" stroke-width="20" stroke-linecap="round" stroke-linejoin="round" fill="none"/>
  <path d="M164,196 L200,212 L212,230" stroke="#14161d" stroke-width="20" stroke-linecap="round" stroke-linejoin="round" fill="none"/>
  <g stroke="#ff1e2d" stroke-width="1.6" opacity="0.9">
    <path d="M104,202 L124,220 M168,202 L188,220" fill="none"/>
  </g>
  <rect x="66" y="222" width="26" height="14" rx="7" fill="#e01b28" transform="rotate(-6 79 229)"/>
  <rect x="200" y="222" width="26" height="14" rx="7" fill="#e01b28" transform="rotate(6 213 229)"/>
  <path d="M66,229 L92,229 M200,229 L226,229" stroke="#7d0f16" stroke-width="2"/>
  <ellipse cx="146" cy="172" rx="38" ry="28" fill="#14161d"/>
  <g clip-path="url(#torsoClip)" stroke="#ff1e2d" stroke-width="1.8" fill="none" opacity="0.95">
    <path d="M146,144 L134,160 L124,182 M146,144 L146,162 L146,184 M146,144 L158,160 L168,182"/>
    <path d="M112,158 Q146,170 180,158 M110,176 Q146,190 182,176"/>
  </g>
  <g stroke="#ff1e2d" stroke-width="3" stroke-linecap="round">
    <ellipse cx="146" cy="166" rx="7" ry="11" fill="#ff1e2d" stroke="none"/>
    <path d="M139,158 L128,148 M138,166 L126,164 M139,174 L130,182 M140,181 L136,192 M153,158 L164,148 M154,166 L166,164 M153,174 L162,182 M152,181 L156,192" fill="none"/>
  </g>
  <path d="M150,156 L160,196 L168,222" stroke="#14161d" stroke-width="16" stroke-linecap="round" stroke-linejoin="round" fill="none"/>
  <circle cx="168" cy="224" r="11" fill="#e01b28"/>
  <path d="M161,220 L175,220 M161,226 L175,226" stroke="#7d0f16" stroke-width="1.6"/>
  <g stroke="#8a8f9e" stroke-width="3" stroke-linecap="round">
    <path d="M140,236 L128,246 M168,238 L168,248 M196,236 L208,246"/>
  </g>
  <g stroke="#ff1e2d" stroke-width="2.5" stroke-linecap="round" opacity="0.8">
    <path d="M118,232 L108,240 M218,232 L228,240"/>
  </g>
  <circle cx="150" cy="122" r="30" fill="#14161d"/>
  <g clip-path="url(#headClip)" stroke="#ff1e2d" stroke-width="1.5" fill="none" opacity="0.9">
    <path d="M150,92 L150,110 M136,94 L142,110 M164,94 L158,110"/>
  </g>
  <path d="M124,114 Q120,130 126,146" stroke="#4d7cff" stroke-width="3" fill="none" opacity="0.8" stroke-linecap="round"/>
  <g transform="translate(150,122) rotate(6)">
    <path d="M-30,-6 L-8,-16 L-12,14 L-31,4 Z" fill="url(#eg)" stroke="#ff1e2d" stroke-width="3.5" stroke-linejoin="round"/>
    <path d="M30,-6 L8,-16 L12,14 L31,4 Z" fill="url(#eg)" stroke="#ff1e2d" stroke-width="3.5" stroke-linejoin="round"/>
  </g>
</svg>
